<svg width="48" height="48" viewBox="0 0 48 48" fill="none" xmlns="http://www.w3.org/2000/svg">
    <path
        d="M10.5991 32.5955L9.48948 34.8815C9.27352 35.3257 9.57025 35.8559 10.0636 35.8875C16.934 36.3423 23.9992 32.4287 23.9992 24.0167L10.5991 32.5955Z"
        fill="#A7F3D0" />
    <path
        d="M6.80656 28.5695L5.2843 30.5728C5.01567 30.9275 5.14033 31.4384 5.54065 31.6333C13.3556 35.4328 23.9992 30.0636 23.9992 24.0167L6.80656 28.5695Z"
        fill="#D1FAE5" />
    <path
        d="M23.4724 12.0773L22.5945 24.0166C21.8834 27.0892 12.7621 34.2001 3.63208 24.0166L9.49814 17.824C9.74395 17.5641 10.1443 17.5396 10.4305 17.7538C13.482 20.0257 19.9837 19.722 23.4724 12.0773Z"
        fill="#059669" />
    <path
        d="M23.999 24.0167C22.4013 29.3051 11.2222 33.4751 3.22639 26.0324C3.00165 25.8234 2.93493 25.4916 3.06662 25.2142L3.63198 24.0167C11.8841 32.0933 20.663 27.3527 22.5944 24.0167L23.999 24.0167Z"
        fill="white" />
    <path d="M23.9991 12.0773L23.9991 24.0166L22.5945 24.0166L23.4724 12.0773L23.9991 12.0773Z" fill="#047857" />
    <path
        d="M37.3991 32.5955L38.5088 34.8815C38.7247 35.3257 38.428 35.8559 37.9346 35.8875C31.0643 36.3423 23.999 32.4287 23.999 24.0167L37.3991 32.5955Z"
        fill="#A7F3D0" />
    <path
        d="M41.1933 28.5695L42.7156 30.5728C42.9842 30.9275 42.8596 31.4384 42.4592 31.6333C34.6443 35.4328 24.0007 30.0636 24.0007 24.0167L41.1933 28.5695Z"
        fill="#D1FAE5" />
    <path
        d="M24.5256 12.0773L25.4035 24.0166C26.1146 27.0892 35.2359 34.2001 44.3659 24.0166L38.4999 17.824C38.2541 17.5641 37.8538 17.5396 37.5676 17.7538C34.5178 20.0257 28.0161 19.722 24.5256 12.0773Z"
        fill="#059669" />
    <path
        d="M23.999 24.0167C25.5968 29.3051 36.7758 33.4751 44.7717 26.0324C44.9964 25.8234 45.0631 25.4916 44.9314 25.2142L44.3661 24.0167C36.1139 32.0933 27.335 27.3527 25.4036 24.0167L23.999 24.0167Z"
        fill="white" />
    <path d="M23.999 12.0773L23.999 24.0166L25.4036 24.0166L24.5258 12.0773L23.999 12.0773Z" fill="#047857" />
    <rect x="11.3667" y="9.91724" width="9.4" height="15" rx="4.7" fill="white" stroke="#059669" />
    <path
        d="M17.933 20.8005L17.933 18.9338C17.933 17.9029 17.0973 17.0671 16.0664 17.0671V17.0671C15.0354 17.0671 14.1997 17.9029 14.1997 18.9338L14.1997 20.8005"
        stroke="#059669" stroke-width="2.33333" stroke-linecap="round" />
    <rect x="27.2334" y="9.91724" width="9.4" height="15" rx="4.7" fill="white" stroke="#059669" />
    <path
        d="M33.8 20.8005L33.8 18.9338C33.8 17.9029 32.9642 17.0671 31.9333 17.0671V17.0671C30.9024 17.0671 30.0667 17.9029 30.0667 18.9338L30.0667 20.8005"
        stroke="#059669" stroke-width="2.33333" stroke-linecap="round" />
</svg>